<?xml version="1.0" encoding="utf-8"?>
<!-- Generator: Adobe Illustrator 27.0.1, SVG Export Plug-In . SVG Version: 6.00 Build 0)  -->
<svg version="1.1" id="Layer_1" xmlns="http://www.w3.org/2000/svg" xmlns:xlink="http://www.w3.org/1999/xlink" x="0px" y="0px"
	 viewBox="0 0 512 512" style="enable-background:new 0 0 512 512;" xml:space="preserve">
<style type="text/css">
	.st0{fill:#FFFFFF;}
</style>
<g>
	<path class="st0" d="M344.2,158.1c-0.9,0.8-2.1,1.3-3.3,1.3c-0.7,0-1.4-0.2-2.1-0.5c-1.8-0.8-3-2.6-3-4.6v-35.8h-21.6
		c-2.8,0-5.1-2.3-5.1-5.1V87.6c-21.1-10.3-43.7-15.5-67.4-15.5c-83.1,0-152.2,67.6-154.1,150.6c-0.1,3.2-0.8,6.2-2,9.2L56,300.6
		c-1.1,2.5-0.8,5.2,0.7,7.5c1.5,2.3,3.9,3.6,6.6,3.6h19.8c2.7,0,5.2,1.5,6.5,3.9c1.3,2.4,1.1,5.3-0.4,7.6c-1.8,2.7-2.2,4.8-1.2,6.5
		c1.5,2.5,2.1,5.3,1.9,8.2c-0.3,3,0.5,5.4,2.3,7.2c4.1,4.1,10,14.6,3.3,25.5c-1.8,3-1.8,6.7,0,9.4c2.7,4,7.2,6.4,12,6.4h28.3
		c13.6,0,24.6,11,24.6,24.6v76.3h164.7v-74.9c0-31,11.3-60.7,31.8-83.9c25.1-28.2,38.9-64.5,38.9-102.3c0-32.1-9.7-62.7-28.1-88.7
		L344.2,158.1z M308.9,195.2l17.3-10c2.4-1.4,5.5-0.6,7,1.9c1.4,2.4,0.6,5.5-1.9,7l-17.3,10c-0.8,0.5-1.7,0.7-2.5,0.7
		c-1.7,0-3.5-0.9-4.4-2.5C305.6,199.7,306.4,196.6,308.9,195.2L308.9,195.2z M276.2,166.2l10-17.3c1.4-2.4,4.5-3.3,7-1.9
		c2.4,1.4,3.3,4.5,1.9,7l-10,17.3c-0.9,1.6-2.7,2.5-4.4,2.5c-0.9,0-1.7-0.2-2.5-0.7C275.7,171.8,274.8,168.7,276.2,166.2
		L276.2,166.2z M233.5,137.6c0-2.8,2.3-5.1,5.1-5.1c2.8,0,5.1,2.3,5.1,5.1v19.9c0,2.8-2.3,5.1-5.1,5.1c-2.8,0-5.1-2.3-5.1-5.1V137.6
		z M184,147.2c2.4-1.4,5.5-0.6,7,1.9l10,17.3c1.4,2.4,0.6,5.5-1.9,7c-0.8,0.5-1.7,0.7-2.5,0.7c-1.7,0-3.5-0.9-4.4-2.5l-10-17.3
		C180.8,151.7,181.6,148.6,184,147.2L184,147.2z M134.6,246.7c-2.8,0-5.1-2.3-5.1-5.1c0-2.8,2.3-5.1,5.1-5.1h19.9
		c2.8,0,5.1,2.3,5.1,5.1c0,2.8-2.3,5.1-5.1,5.1H134.6z M168.3,288.1L151,298c-0.8,0.5-1.7,0.7-2.5,0.7c-1.7,0-3.5-0.9-4.4-2.5
		c-1.4-2.4-0.6-5.5,1.9-7l17.3-10c2.4-1.4,5.5-0.6,7,1.9C171.6,283.6,170.7,286.7,168.3,288.1z M170.2,202.1
		c-0.9,1.6-2.7,2.5-4.4,2.5c-0.9,0-1.7-0.2-2.5-0.7L146,194c-2.4-1.4-3.3-4.5-1.9-7c1.4-2.4,4.5-3.3,7-1.9l17.3,10
		C170.7,196.6,171.6,199.7,170.2,202.1L170.2,202.1z M288.6,284.3c-3.4,3.8-5.9,8.5-7,13.4c-1.1,4.8-4.5,8.6-8.8,10.6v2.9
		c0,8.6-4.7,16.2-11.7,20.2v3.5c0,12.3-10,22.3-22.3,22.3h-0.6c-12.3,0-22.3-10-22.3-22.3v-3.5c-7-4-11.7-11.6-11.7-20.2v-2.9
		c-4.3-1.9-7.6-5.8-8.8-10.6c-1.2-4.9-3.6-9.5-7-13.4c-11.1-12.4-17.3-28.4-17.3-45c0-17.8,6.9-34.6,19.4-47.3s29.2-19.8,46.9-20.1
		c37-0.6,67.6,29,68.4,65.9C306.2,255.1,300.1,271.6,288.6,284.3L288.6,284.3z M333.1,296.2c-0.9,1.6-2.7,2.5-4.4,2.5
		c-0.9,0-1.7-0.2-2.5-0.7l-17.3-10c-2.4-1.4-3.3-4.5-1.9-7c1.4-2.4,4.5-3.3,7-1.9l17.3,10C333.6,290.6,334.5,293.7,333.1,296.2
		L333.1,296.2z M342.6,246.7h-19.9c-2.8,0-5.1-2.3-5.1-5.1s2.3-5.1,5.1-5.1h19.9c2.8,0,5.1,2.3,5.1,5.1S345.4,246.7,342.6,246.7z"/>
	<path class="st0" d="M238.5,182.1c-0.3,0-0.6,0-0.9,0c-31.1,0.5-56.3,26.1-56.3,57.2c0,14.2,5.2,27.7,14.6,38.2
		c4.6,5.1,7.8,11.3,9.4,17.8c0.6,2.4,2.8,4.2,5.4,4.2h22.8V255c-1.4-1.3-2.9-2.6-4.5-3.7c-2.7-1.9-5.6-3.6-8.6-5
		c-2.6-1.1-3.7-4.2-2.6-6.7s4.2-3.7,6.7-2.6c3,1.3,5.8,2.9,8.4,4.6c0.7,0.5,1.4,0.9,2,1.4c1.2,0.9,2.4,1.9,3.6,2.8
		c1.1-1,2.3-2,3.6-2.9c0.7-0.5,1.3-0.9,2-1.4c2.7-1.7,5.5-3.3,8.4-4.6c2.6-1.1,5.6,0,6.7,2.6s0,5.6-2.6,6.7c-3.1,1.4-6,3.1-8.6,5
		c-1.6,1.1-3.1,2.4-4.5,3.7v44.5h22.7c2.5,0,4.8-1.7,5.4-4.2c1.6-6.6,4.8-12.7,9.4-17.8c9.7-10.8,14.9-24.8,14.6-39.4
		C295.1,207.1,269.5,182.1,238.5,182.1L238.5,182.1z"/>
	<path class="st0" d="M319.3,24.7v83.6h21.6c2.8,0,5.1,2.3,5.1,5.1v29.7l38.2-33.5c0.9-0.8,2.1-1.3,3.3-1.3h69.2V24.7H319.3z
		 M431.1,85.9h-86.2c-2.8,0-5.1-2.3-5.1-5.1c0-2.8,2.3-5.1,5.1-5.1h86.2c2.8,0,5.1,2.3,5.1,5.1C436.2,83.6,433.9,85.9,431.1,85.9z
		 M431.1,57.3h-86.2c-2.8,0-5.1-2.3-5.1-5.1c0-2.8,2.3-5.1,5.1-5.1h86.2c2.8,0,5.1,2.3,5.1,5.1C436.2,55,433.9,57.3,431.1,57.3z"/>
	<path class="st0" d="M227.6,334.6h-1.5v0.4c0,6.7,5.5,12.1,12.1,12.1h0.6c6.7,0,12.1-5.5,12.1-12.1v-0.4h-1.5H227.6z"/>
	<path class="st0" d="M214.4,309.7v1.6c0,7.3,5.9,13.2,13.2,13.2h21.8c7.3,0,13.2-5.9,13.2-13.2v-1.6h-24.1H214.4z"/>
</g>
</svg>
