<?xml version="1.0" encoding="utf-8"?>
<!-- Generator: Adobe Illustrator 27.0.1, SVG Export Plug-In . SVG Version: 6.00 Build 0)  -->
<svg version="1.1" id="Layer_1" xmlns="http://www.w3.org/2000/svg" xmlns:xlink="http://www.w3.org/1999/xlink" x="0px" y="0px"
	 viewBox="0 0 512 512" style="enable-background:new 0 0 512 512;" xml:space="preserve">
<style type="text/css">
	.st0{fill:#FFFFFF;}
</style>
<g>
	<g>
		<path class="st0" d="M6.4,494.4h86.4V324.8H19.2L6.4,494.4z"/>
		<path class="st0" d="M503.2,375.2c-4.8-8-15.2-10.4-23.2-7.2l-136,61.6h-0.8l-1.6,0.8c-3.2,1.6-6.4,2.4-9.6,2.4c-1.6,0-2.4,0-4,0
			H204.8c4.8-10.4,14.4-17.6,27.2-17.6h96c1.6,0,4-0.8,5.6-1.6l1.6-0.8c0.8-0.8,1.6-1.6,3.2-2.4c1.6-1.6,4-5.6,4-10.4
			c0-8-6.4-14.4-14.4-14.4h-74.4c-6.4,0-13.6-1.6-19.2-4.8L171.2,348c-3.2-1.6-7.2-2.4-11.2-2.4h-49.6v124h35.2
			c4.8,0,9.6,0.8,14.4,2.4l98.4,35.2c12.8,4.8,27.2,4,38.4-2.4L496,401.6c6.4-3.2,9.6-9.6,9.6-16
			C505.6,381.6,504.8,378.4,503.2,375.2L503.2,375.2z"/>
		<path class="st0" d="M175.2,193.6h19.2c3.2,16.8,10.4,32.8,19.2,47.2L200,253.6c-3.2,3.2-3.2,8,0,11.2l30.4,30.4
			c1.6,1.6,3.2,2.4,5.6,2.4s4-0.8,5.6-2.4l13.6-13.6c14.4,9.6,30.4,16,46.4,19.2V320c0,4.8,3.2,8,8,8h43.2c4.8,0,8-3.2,8-8v-19.2
			c16.8-3.2,32.8-10.4,46.4-19.2l13.6,13.6c3.2,3.2,8,3.2,11.2,0l30.4-30.4c3.2-3.2,3.2-8,0-11.2L448.8,240
			c9.6-14.4,16-30.4,19.2-46.4h20c4,0,8-3.2,8-8v-43.2c0-4-3.2-8-8-8h-19.2c-3.2-16.8-10.4-32.8-19.2-46.4l13.6-13.6
			c3.2-3.2,3.2-8,0-11.2l-30.4-30.4c-3.2-3.2-8-3.2-11.2,0L408,46.4c-14.4-9.6-30.4-16-46.4-19.2V8c0-4-3.2-8-8-8h-43.2
			c-4,0-8,3.2-8,8v19.2c-16.8,3.2-32.8,10.4-46.4,19.2l-13.6-13.6c-1.6-1.6-3.2-2.4-5.6-2.4s-4,0.8-5.6,2.4L200,63.2
			c-3.2,3.2-3.2,8,0,11.2L213.6,88c-9.6,14.4-16,30.4-19.2,47.2h-19.2c-4,0-8,3.2-8,8v43.2C167.2,190.4,171.2,193.6,175.2,193.6z
			 M242.4,135.2c0.8-3.2,3.2-4.8,6.4-5.6l52-7.2L324,75.2c3.2-5.6,12-5.6,15.2,0l23.2,47.2l52,7.2c3.2,0.8,5.6,2.4,6.4,5.6
			s0,6.4-2.4,8.8l-37.6,36.8l8.8,52c0.8,3.2-0.8,6.4-3.2,8c-1.6,0.8-3.2,1.6-4.8,1.6s-2.4,0-4-0.8l-46.4-24.8l-46.4,24.8
			c-3.2,1.6-6.4,1.6-8.8-0.8c-2.4-1.6-4-4.8-3.2-8l8.8-52L244,144C241.6,141.6,240.8,138.4,242.4,135.2z"/>
		<path class="st0" d="M301.6,176.8l-6.4,36.8L328,196c0.8-0.8,2.4-0.8,3.2-0.8s2.4,0,3.2,0.8l32.8,17.6l-6.4-36.8
			c0-2.4,0-4.8,2.4-6.4l26.4-25.6l-36.8-5.6c-2.4,0-4.8-1.6-5.6-4l-16-32.8l-16.8,32.8c-0.8,2.4-3.2,4-5.6,4l-36.8,5.6l26.4,25.6
			C301.6,172,302.4,174.4,301.6,176.8L301.6,176.8z"/>
	</g>
</g>
</svg>
