<?xml version="1.0" encoding="utf-8"?>
<!-- Generator: Adobe Illustrator 27.0.1, SVG Export Plug-In . SVG Version: 6.00 Build 0)  -->
<svg version="1.1" id="Glyph" xmlns="http://www.w3.org/2000/svg" xmlns:xlink="http://www.w3.org/1999/xlink" x="0px" y="0px"
	 viewBox="0 0 512 512" style="enable-background:new 0 0 512 512;" xml:space="preserve">
<style type="text/css">
	.st0{fill:#FFFFFF;}
</style>
<path class="st0" d="M128,368c44.2,0,80,35.8,80,80h40v32h-96c-17.7,0-32-14.3-32-32v-40h-16v40c0,26.5,21.5,48,48,48H48v-48
	C48,403.8,83.8,368,128,368z"/>
<path class="st0" d="M464,448v48H360c26.5,0,48-21.5,48-48v-40h-16v40c0,17.7-14.3,32-32,32h-96v-32h40c0-44.2,35.8-80,80-80
	S464,403.8,464,448z"/>
<path class="st0" d="M408,192c48.6,0,88-39.4,88-88s-39.4-88-88-88H296c-14.4,0-28,3.5-40,9.7c-12-6.2-25.6-9.7-40-9.7H104
	c-48.6,0-88,39.4-88,88s39.4,88,88,88h8v82.8c-18.6,6.5-32,24.3-32,45.2c0,26.5,21.5,48,48,48s48-21.5,48-48
	c0-20.9-13.4-38.7-32-45.2V192h72c14.4,0,28-3.5,40-9.7c11.2-5.8,21-13.8,28.7-23.4c12.1-15,19.3-34.1,19.3-54.9
	c0-15.7-9-37.7-9.7-39.8c-2.2,0.1-4.3,0.2-6.4,0.6c-7.8,1.6-14.9,5.5-20.5,11.2c-0.6,0.7-1.1,1.5-1.8,2.2c4,7.7,6.3,16.5,6.3,25.8
	c0,15.3-6.1,29-16,39.1c-9.9-10.1-16-23.8-16-39.1s6.1-29,16-39.1c7.7-7.8,17.6-13.4,28.7-15.8c3.7-0.7,7.4-1.1,11.3-1.1h112
	c31,0,56,25,56,56s-25,56-56,56h-8c0-4.4-1.8-8.4-4.7-11.3c-2.9-3-6.9-4.7-11.3-4.7c-8.8,0-16,7.2-16,16h-64.5c-1.9,3-4,6-6.3,8.9
	c-6.4,8-13.8,14.8-22.2,20.6c6.7,1.7,13.8,2.6,21,2.6h72v82.8c-13.6,4.7-24.5,15.6-29.2,29.2H304v16h32c0,26.5,21.5,48,48,48
	s48-21.5,48-48c0-20.9-13.4-38.7-32-45.2V192L408,192z M227.3,158.9c-3.7,0.7-7.4,1.1-11.3,1.1h-72c0-4.4-1.8-8.4-4.7-11.3
	c-2.9-3-6.9-4.7-11.3-4.7c-8.8,0-16,7.2-16,16h-8c-31,0-56-25-56-56s25-56,56-56h112c3.8,0,7.6,0.4,11.3,1.1
	C215.2,64.2,208,83.2,208,104S215.2,143.8,227.3,158.9z"/>
</svg>
