<?xml version="1.0" encoding="utf-8"?>
<!-- Generator: Adobe Illustrator 27.0.1, SVG Export Plug-In . SVG Version: 6.00 Build 0)  -->
<svg version="1.1" id="Capa_1" xmlns="http://www.w3.org/2000/svg" xmlns:xlink="http://www.w3.org/1999/xlink" x="0px" y="0px"
	 viewBox="0 0 512 512" style="enable-background:new 0 0 512 512;" xml:space="preserve">
<style type="text/css">
	.st0{fill:#FFFFFF;}
</style>
<g>
	<g>
		<path class="st0" d="M300.1,229.4v35.3c9.7,0,17.7-7.9,17.7-17.7S309.9,229.4,300.1,229.4z"/>
		<path class="st0" d="M203,335.4h17.7c34.1,0,61.8-27.7,61.8-61.8v-64.5c-15.2-6.3-28.5-16.8-38.2-30.1l-40,20
			c-16.7,8.4-35.4,12.8-54.1,12.8c-3.1,0-6.1-0.5-8.8-1.5v63.3c0,16.5,6.4,32,18.1,43.7C171,328.9,186.5,335.4,203,335.4z
			 M247.2,220.6c14.6,0,26.5,11.9,26.5,26.5H256c0-4.9-4-8.8-8.8-8.8s-8.8,4-8.8,8.8h-17.7C220.7,232.5,232.6,220.6,247.2,220.6z
			 M211.9,300.1c9.7,0,17.7-7.9,17.7-17.7h17.7c0,19.5-15.8,35.3-35.3,35.3s-35.3-15.8-35.3-35.3h17.7
			C194.2,292.1,202.1,300.1,211.9,300.1z M176.6,220.6c14.6,0,26.5,11.9,26.5,26.5h-17.7c0-4.9-4-8.8-8.8-8.8s-8.8,4-8.8,8.8h-17.7
			C150.1,232.5,162,220.6,176.6,220.6z"/>
		<path class="st0" d="M123.6,185.3c0-14.6,11.9-26.5,26.5-26.5h8.8v17.7h-8.8c-4.9,0-8.8,4-8.8,8.8s4,8.8,8.8,8.8
			c16,0,31.9-3.8,46.2-10.9l53.9-27l6.5,9.7c8.9,13.4,22.2,23.5,37.4,28.6l6,2v15.2c4.6,0,9,0.9,13,2.5c3-5.5,4.7-11.8,4.7-18.1
			v-9.9c0-17.4-11.8-32.4-28.6-36.7l-3.9-1l-6.6-13.2c-6.4-12.9-19.4-20.9-33.8-20.9h-68.3c-38.9,0-70.6,31.7-70.6,70.6
			c0,9.9,2.1,19.6,6.1,28.6c3.6-1.3,7.5-2.1,11.5-2.1V185.3z"/>
		<path class="st0" d="M216.3,492.6l-4.5,2.6l-4.5-2.6C90.3,423.7,17.7,296.5,17.7,160.7V88.2h23.7c61,0,119.4-22.4,164.6-63.1
			l5.9-5.3l5.9,5.3c45.2,40.7,103.6,63.1,164.6,63.1h23.7v72.5c0,49.6-10,99.6-29,145.9c6.7-2.4,13.7-4.1,21-5.2
			c17-45.5,25.7-92.8,25.7-140.7V70.5h-41.4c-61.1,0-118.5-23.8-161.7-67c-4.6-4.6-13-4.6-17.7,0c-43.2,43.2-100.6,67-161.7,67H0
			v90.2c0,142.7,76.6,276,199.9,348c7.3,4.3,16.7,4.3,24,0c29.4-17.2,56.5-38.2,80.8-62.3c-2-6.9-3.4-14-4-21.4
			C275.7,451.5,247.5,474.3,216.3,492.6L216.3,492.6z"/>
		<path class="st0" d="M248.9,389.6l2.7-24.2c-3.5-2.4-7.1-4.4-11-6.2l-8.8,17.5L248.9,389.6z"/>
		<path class="st0" d="M105.9,247.1c0,9.7,7.9,17.7,17.7,17.7v-35.3C113.8,229.4,105.9,237.4,105.9,247.1z"/>
		<path class="st0" d="M191.8,376.9l-8.8-17.5c-3.8,1.7-7.5,3.8-11,6.2l2.7,24.2L191.8,376.9z"/>
		<path class="st0" d="M414.9,317.7c-53.5,0-97.1,43.6-97.1,97.1s43.6,97.1,97.1,97.1s97.1-43.6,97.1-97.1S468.4,317.7,414.9,317.7z
			 M388.7,471.8l-33.1-33.1l12.5-12.5l19.9,19.9l73.2-81.4l13.1,11.8L388.7,471.8z"/>
		<path class="st0" d="M301.6,397.4c5-32.9,24-61.2,50.8-78.7c23.5-49.3,36-103.8,36-158v-54.9h-6.1c-62.7,0-123-22.1-170.5-62.4
			c-47.5,40.3-107.8,62.4-170.5,62.4h-6.1v54.9c0,89.8,33.4,175.5,91,241.7c6.1-24.3,22.4-44.8,43.9-56.5
			c-8.6-3.9-16.6-9.3-23.4-16.2c-12.9-12.9-20.8-29.5-22.7-47.3h-0.5c-19.5,0-35.3-15.8-35.3-35.3c0-9,3.5-17.1,9-23.3
			c-5.8-12-9-25.1-9-38.5c0-48.7,39.6-88.3,88.3-88.3h68.3c21.1,0,40.1,11.7,49.6,30.6l3,6.1c22.6,7.5,38,28.5,38,52.6v9.9
			c0,10.1-3,20-8.1,28.6c5,6.1,8.1,13.8,8.1,22.3c0,19.5-15.8,35.3-35.3,35.3h-0.5c-3.2,28.3-21.3,52.2-46.2,63.5
			c21.6,11.7,37.8,32.1,44,56.4C298.8,400.7,300.2,399,301.6,397.4L301.6,397.4z"/>
		<path class="st0" d="M156,380.8c-8.3,10.7-13.5,23.8-14.5,38.1c20.9,21.2,44.4,40.1,70.3,55.9c25.6-15.6,49.1-34.3,70.3-55.9
			c-1-14.2-6.2-27.3-14.5-38.1l-4.6,41.5l-30.6-23l6.4,45.1l-27,27l-27-27l6.4-45.1l-30.6,23L156,380.8z"/>
		<path class="st0" d="M211.9,353c-4,0-7.9,0.4-11.7,1.1l8.3,16.6h6.7l8.3-16.6C219.7,353.4,215.8,353,211.9,353L211.9,353z"/>
		<path class="st0" d="M210.7,388.3l-7.1,49.8l8.3,8.3l8.3-8.3l-7.1-49.8H210.7z"/>
	</g>
</g>
</svg>
