<?xml version="1.0" encoding="utf-8"?>
<!-- Generator: Adobe Illustrator 27.0.1, SVG Export Plug-In . SVG Version: 6.00 Build 0)  -->
<svg version="1.1" id="Glyph" xmlns="http://www.w3.org/2000/svg" xmlns:xlink="http://www.w3.org/1999/xlink" x="0px" y="0px"
	 viewBox="0 0 512 512" style="enable-background:new 0 0 512 512;" xml:space="preserve">
<style type="text/css">
	.st0{fill:#FFFFFF;}
</style>
<g>
	<path class="st0" d="M72,55.6c0.2-2,1.9-3.6,4-3.6h48c2,0,3.7,1.5,4,3.6L155.6,300h8L136,48.4c-0.2-2.2-2.2-4.4-4-4.4H68
		c-1.8,0-3.8,2.2-4,4.4L36.5,300h8L72,55.6z"/>
	<path class="st0" d="M80,28h40v8H80V28z"/>
	<path class="st0" d="M120.9,64.3l-15,13.9l18.5,17.1L120.9,64.3z"/>
	<path class="st0" d="M72,12h56v8H72V12z"/>
	<path class="st0" d="M188,284h124v16H188V284z"/>
	<path class="st0" d="M80.6,124l19.4,13.7l19.4-13.7H80.6z"/>
	<path class="st0" d="M128.1,127.7l-21.1,14.9l24.8,17.5L128.1,127.7z"/>
	<path class="st0" d="M68.3,160.1l24.8-17.5l-21.1-14.9L68.3,160.1z"/>
	<path class="st0" d="M123.4,164L100,147.5L76.6,164H123.4z"/>
	<path class="st0" d="M75.6,95.2l18.5-17.1l-15-13.9L75.6,95.2z"/>
	<path class="st0" d="M82.2,100h35.5L100,83.6L82.2,100z"/>
	<path class="st0" d="M73.3,116h53.5l-0.9-8H74.2L73.3,116z"/>
	<path class="st0" d="M491.1,68.8l-9.1,19.6l0.8,0.8c4,3.8,10.4,3.8,14.4,0c3.8-3.9,3.8-10.3-0.1-14.4L491.1,68.8z"/>
	<path class="st0" d="M476,364c-4.4,0-8-3.6-8-8c0-2.2-1.8-4-4-4s-4,1.8-4,4c0,8.8,7.2,16,16,16s16-7.2,16-16v-24.6
		c6.9-1.8,12-8,12-15.4s-5.1-13.6-12-15.4V99.9c-0.7,0.1-1.3,0.2-2,0.2c-2.1,0-4.1-0.4-6-1.1v201.6c-6.9,1.8-12,8-12,15.4
		s5.1,13.6,12,15.4V356C484,360.4,480.4,364,476,364z M480,316c0-4.4,3.6-8,8-8s8,3.6,8,8s-3.6,8-8,8S480,320.4,480,316z"/>
	<path class="st0" d="M354.4,216H192v8h157.8L354.4,216z"/>
	<path class="st0" d="M447.7,143.4l-31.9-18l-24.7,42.9l35.3,21.2L447.7,143.4z"/>
	<path class="st0" d="M490.4,51.5l-24.2-13.3l-25.6,44.5l27.9,16.3L490.4,51.5z"/>
	<path class="st0" d="M66,180h68l-0.9-8H66.9L66,180z"/>
	<path class="st0" d="M496.4,38.4c4.3-8.9,4.8-16.8,1.4-21.7c-2.2-3.2-5.9-4.9-10-4.6c-5.1,0.4-9.6,3.9-12.2,9.6l-5.5,9.5l23.6,13
		L496.4,38.4z"/>
	<path class="st0" d="M423,196.9l-35.9-21.5L372.3,201l38.3,22.5L423,196.9z"/>
	<path class="st0" d="M465,106.2l-28.5-16.6l-16.7,29l31.3,17.6L465,106.2z"/>
	<path class="st0" d="M220,168h120c2.2,0,4-1.8,4-4s-1.8-4-4-4H220c-2.2,0-4,1.8-4,4S217.8,168,220,168z"/>
	<path class="st0" d="M336,208v-32H224v32h16v-16c0-2.2,1.8-4,4-4h8c2.2,0,4,1.8,4,4v16h16v-16c0-2.2,1.8-4,4-4h8c2.2,0,4,1.8,4,4
		v16h16v-16c0-2.2,1.8-4,4-4h8c2.2,0,4,1.8,4,4v16H336z"/>
	<path class="st0" d="M280,108c-25.8,0-53.5,13.8-55.8,44h111.6C333.5,121.8,305.8,108,280,108z"/>
	<path class="st0" d="M397.4,252l9.8-21.2l-38.9-22.9L342.9,252H397.4z"/>
	<path class="st0" d="M412,300v-36c0-2.2-1.8-4-4-4h-84c-2.2,0-4,1.8-4,4v36h40v-16c0-2.2,1.8-4,4-4h32c2.2,0,4,1.8,4,4v16H412z"/>
	<path class="st0" d="M333.7,252l11.5-20H200v44h112v-12c0-6.6,5.4-12,12-12H333.7z M228,256c0,2.2-1.8,4-4,4h-8c-2.2,0-4-1.8-4-4
		v-8c0-2.2,1.8-4,4-4h8c2.2,0,4,1.8,4,4V256z M264,256c0,2.2-1.8,4-4,4h-8c-2.2,0-4-1.8-4-4v-8c0-2.2,1.8-4,4-4h8c2.2,0,4,1.8,4,4
		V256z M300,256c0,2.2-1.8,4-4,4h-8c-2.2,0-4-1.8-4-4v-8c0-2.2,1.8-4,4-4h8c2.2,0,4,1.8,4,4V256z"/>
	<path class="st0" d="M100,72.7L113.8,60H86.2L100,72.7z"/>
	<path class="st0" d="M48,451.3c6.2,2.7,13.2,4.7,24,4.7c11.7,0,18.2-2.4,24-5.3V432H48V451.3z"/>
	<path class="st0" d="M48,408h48v16H48V408z"/>
	<path class="st0" d="M128.9,228L100,211.5L71.1,228H128.9z"/>
	<path class="st0" d="M440,464c-16.5,0-24.4-4.3-31.9-8.5c-7-3.9-13.6-7.5-28.1-7.5c-14.5,0-21.1,3.6-28.1,7.5
		c-7.6,4.2-15.4,8.5-31.9,8.5c-16.4,0-25.2-4.3-33.8-8.4c-8.1-3.9-15.7-7.6-30.3-7.6c-14.6,0-22.2,3.7-30.2,7.6
		c-8.5,4.1-17.3,8.4-33.7,8.4c-16.5,0-24.4-4.3-31.9-8.5c-7-3.9-13.6-7.5-28.1-7.5c-14.5,0-21.1,3.6-28.1,7.5
		c-7.6,4.2-15.4,8.5-31.9,8.5c-16.4,0-25.2-4.3-33.7-8.4c-7.3-3.5-14.2-6.9-26.3-7.5v16c13.9,0.6,22,4.5,29.7,8.3
		c8.1,3.9,15.7,7.6,30.3,7.6c14.5,0,21.1-3.6,28.1-7.5c7.6-4.2,15.4-8.5,31.9-8.5s24.4,4.3,31.9,8.5c7,3.9,13.6,7.5,28.1,7.5
		c14.6,0,22.2-3.7,30.2-7.6c8.5-4.1,17.3-8.4,33.7-8.4s25.2,4.3,33.8,8.4c8.1,3.9,15.7,7.6,30.3,7.6c14.5,0,21.1-3.6,28.1-7.5
		c7.6-4.2,15.4-8.5,31.9-8.5s24.4,4.3,31.9,8.5c7,3.9,13.6,7.5,28.1,7.5c14.6,0,22.2-3.7,30.3-7.6c7.8-3.8,15.9-7.6,29.7-8.3v-16
		c-12,0.6-19,4-26.3,7.5C465.2,459.7,456.4,464,440,464L440,464z"/>
	<path class="st0" d="M344,392h48v8h-48V392z"/>
	<path class="st0" d="M440,488c-16.5,0-24.4-4.3-31.9-8.5c-7-3.9-13.6-7.5-28.1-7.5c-14.5,0-21.1,3.6-28.1,7.5
		c-7.6,4.2-15.4,8.5-31.9,8.5c-16.4,0-25.2-4.3-33.8-8.4c-8.1-3.9-15.7-7.6-30.3-7.6c-14.6,0-22.2,3.7-30.2,7.6
		c-8.5,4.1-17.3,8.4-33.7,8.4c-16.5,0-24.4-4.3-31.9-8.5c-7-3.9-13.6-7.5-28.1-7.5c-14.5,0-21.1,3.6-28.1,7.5
		c-7.6,4.2-15.4,8.5-31.9,8.5c-16.4,0-25.2-4.3-33.7-8.4c-7.3-3.5-14.2-6.9-26.3-7.5V500h488v-27.9c-12,0.6-19,3.9-26.3,7.5
		C465.2,483.7,456.4,488,440,488L440,488z"/>
	<path class="st0" d="M196,455.9c12-0.6,19-3.9,26.2-7.5c6.2-3,12.5-6,21.8-7.5V432h-48V455.9z"/>
	<path class="st0" d="M196,408h48v16h-48V408z"/>
	<path class="st0" d="M404,375.4l7.9-47.4H28.1l7.9,47.3c0.8,5.8,3.6,8.7,8.3,8.7H396C397.8,384,402.7,384,404,375.4z M88,364
		c0,2.2-1.8,4-4,4H68c-2.2,0-4-1.8-4-4v-16c0-2.2,1.8-4,4-4h16c2.2,0,4,1.8,4,4V364z M136,364c0,2.2-1.8,4-4,4h-16c-2.2,0-4-1.8-4-4
		v-16c0-2.2,1.8-4,4-4h16c2.2,0,4,1.8,4,4V364z M184,364c0,2.2-1.8,4-4,4h-16c-2.2,0-4-1.8-4-4v-16c0-2.2,1.8-4,4-4h16
		c2.2,0,4,1.8,4,4V364z M232,364c0,2.2-1.8,4-4,4h-16c-2.2,0-4-1.8-4-4v-16c0-2.2,1.8-4,4-4h16c2.2,0,4,1.8,4,4V364z M280,364
		c0,2.2-1.8,4-4,4h-16c-2.2,0-4-1.8-4-4v-16c0-2.2,1.8-4,4-4h16c2.2,0,4,1.8,4,4V364z M328,364c0,2.2-1.8,4-4,4h-16
		c-2.2,0-4-1.8-4-4v-16c0-2.2,1.8-4,4-4h16c2.2,0,4,1.8,4,4V364z M376,364c0,2.2-1.8,4-4,4h-16c-2.2,0-4-1.8-4-4v-16
		c0-2.2,1.8-4,4-4h16c2.2,0,4,1.8,4,4V364z"/>
	<path class="st0" d="M196,392h48v8h-48V392z"/>
	<path class="st0" d="M48,392h48v8H48V392z"/>
	<path class="st0" d="M132.7,252H67.3l32.7,18.3L132.7,252z"/>
	<path class="st0" d="M52.8,296.7l39-21.8l-34.3-19.2L52.8,296.7z"/>
	<path class="st0" d="M58.8,244h82.4l-0.9-8H59.7L58.8,244z"/>
	<path class="st0" d="M135.3,191.3l-27.2,15.5l30.9,17.7L135.3,191.3z"/>
	<path class="st0" d="M344,450.7c1.4-0.7,2.7-1.4,4.1-2.2c7.6-4.2,15.4-8.5,31.9-8.5c4.7,0,8.6,0.4,12,1v-9h-48V450.7z"/>
	<path class="st0" d="M61,224.5l30.9-17.7l-27.2-15.5L61,224.5z"/>
	<path class="st0" d="M100,279.5L63.3,300h73.3L100,279.5z"/>
	<path class="st0" d="M12,308h416v12H12V308z"/>
	<path class="st0" d="M344,408h48v16h-48V408z"/>
	<path class="st0" d="M75.1,188l24.9,14.3l24.9-14.3H75.1z"/>
	<path class="st0" d="M142.5,255.7l-34.3,19.2l39,21.8L142.5,255.7z"/>
</g>
</svg>
