<?xml version="1.0" encoding="utf-8"?>
<!-- Generator: Adobe Illustrator 27.0.1, SVG Export Plug-In . SVG Version: 6.00 Build 0)  -->
<svg version="1.1" id="Layer_1" xmlns="http://www.w3.org/2000/svg" xmlns:xlink="http://www.w3.org/1999/xlink" x="0px" y="0px"
	 viewBox="0 0 512 512" style="enable-background:new 0 0 512 512;" xml:space="preserve">
<style type="text/css">
	.st0{fill:#FFFFFF;}
</style>
<g>
	<g>
		<path class="st0" d="M211.2,254.4c0.8-0.8,1.6-0.8,2.4-0.8c29.6-4,60.8-4.8,92.8-4c35.2-28.8,54.4-55.2,54.4-77.6V56L256,12
			L151.2,56v115.2C151.2,195.2,172,224,211.2,254.4L211.2,254.4z M256,62.4c40.8,0,73.6,33.6,73.6,74.4s-32.8,74.4-73.6,74.4
			s-74.4-33.6-74.4-74.4C181.6,95.2,215.2,62.4,256,62.4z"/>
		<path class="st0" d="M423.2,222.4l-48.8,32.8l69.6,97.6v0.8l8,11.2l60-40L423.2,222.4z"/>
		<path class="st0" d="M228.8,469.6l-0.8-0.8c-2.4-1.6-5.6-3.2-8-3.2c-4,0-8,1.6-10.4,4.8l-2.4,3.2l-2.4,3.2
			c-2.4,3.2-3.2,6.4-2.4,9.6c0,3.2,2.4,6.4,4.8,8.8l0.8,0.8c2.4,1.6,5.6,3.2,8,3.2h1.6c3.2,0,6.4-2.4,8.8-4.8l4.8-6.4
			C236,482.4,235.2,474.4,228.8,469.6L228.8,469.6z"/>
		<path class="st0" d="M88.8,222.4L0,324.8l60,40l77.6-109.6L88.8,222.4z"/>
		<path class="st0" d="M127.2,398.4c-2.4-1.6-5.6-3.2-8.8-3.2c-0.8,0-0.8,0-1.6,0c-4,0-7.2,2.4-9.6,4.8l-3.2,3.2
			c-4.8,5.6-4,14.4,2.4,19.2c2.4,1.6,5.6,3.2,8.8,3.2h1.6c4-0.8,7.2-2.4,9.6-5.6l3.2-4C133.6,411.2,132.8,402.4,127.2,398.4z"/>
		<path class="st0" d="M172.8,423.2c-0.8-4-2.4-6.4-4.8-8.8l-0.8-0.8c-2.4-1.6-5.6-3.2-8-3.2c-4,0-8,1.6-10.4,4.8l-7.2,9.6l-0.8,0.8
			l-3.2,3.2l-3.2,3.2c-2.4,3.2-3.2,6.4-2.4,9.6c0,3.2,2.4,6.4,4.8,8.8l0.8,0.8c2.4,1.6,5.6,3.2,8,3.2h1.6c3.2,0,6.4-2.4,8.8-4.8
			l13.6-17.6C172,430.4,172.8,427.2,172.8,423.2L172.8,423.2z"/>
		<path class="st0" d="M216.8,434.4c0-3.2-2.4-6.4-4.8-8.8l-0.8-0.8c-2.4-1.6-4.8-3.2-8-3.2c-0.8,0-0.8,0-1.6,0
			c-3.2,0-6.4,2.4-8.8,4.8l-24,30.4c-2.4,2.4-3.2,6.4-2.4,9.6s2.4,6.4,4.8,8.8l0.8,0.8c2.4,1.6,5.6,3.2,8,3.2c4,0,8-1.6,10.4-4.8
			l8.8-11.2l15.2-19.2C216,441.6,216.8,437.6,216.8,434.4L216.8,434.4z"/>
		<path class="st0" d="M416.8,410.4l-92-63.2h-37.6c-0.8,0-2.4,0-3.2-0.8c-13.6-7.2-23.2-23.2-28-32v-0.8h-32.8v1.6
			c-7.2,29.6-31.2,36.8-40.8,39.2c-0.8,0-1.6,0-2.4,0c-2.4,0-4.8-0.8-7.2-2.4c-2.4-2.4-4-5.6-4-8.8v-42.4c0-6.4,3.2-12.8,8.8-16
			l18.4-15.2l-4-1.6c-8.8-0.8-17.6-1.6-26.4-1.6c-6.4,0-12.8,0-19.2,0.8h-0.8l-64,89.6l0.8,0.8c7.2,11.2,14.4,20,21.6,26.4l0.8,0.8
			l0.8-0.8c3.2-1.6,6.4-2.4,9.6-3.2h3.2c6.4,0,12,2.4,16.8,5.6c4,3.2,6.4,7.2,8.8,12l0.8,1.6l1.6-0.8c4-1.6,8-3.2,12-3.2
			c6.4,0,12,1.6,16.8,5.6l0.8,0.8c3.2,2.4,5.6,5.6,7.2,9.6l0.8,1.6l1.6-1.6c4-3.2,8.8-4.8,13.6-5.6h3.2c5.6,0,12,1.6,16,5.6l0.8,0.8
			c5.6,4,8.8,10.4,10.4,17.6c0.8,6.4-0.8,12.8-4.8,18.4l-0.8,4l2.4,0.8c4,0.8,7.2,2.4,10.4,4.8l0.8,0.8c8,6.4,12,17.6,8.8,28v0.8
			l6.4,4.8c3.2,2.4,6.4,2.4,8,2.4c4.8,0,8.8-2.4,12-6.4c2.4-3.2,3.2-7.2,2.4-11.2s-2.4-7.2-5.6-9.6l-14.4-9.6
			c-1.6-0.8-2.4-3.2-2.4-5.6c0-1.6,0.8-2.4,0.8-4c1.6-1.6,3.2-3.2,5.6-3.2c1.6,0,2.4,0.8,4,0.8l13.6,9.6l29.6,20.8
			c2.4,1.6,5.6,3.2,8.8,3.2c4.8,0,9.6-2.4,12.8-6.4c2.4-3.2,3.2-7.2,2.4-12c-0.8-4-3.2-8-6.4-10.4l-0.8-0.8l-40-28.8
			c-1.6-0.8-2.4-2.4-2.4-4s0-3.2,1.6-4.8s3.2-2.4,5.6-2.4c1.6,0,2.4,0.8,4,1.6l60.8,43.2c2.4,1.6,5.6,2.4,8.8,2.4h2.4
			c4-0.8,8-3.2,10.4-6.4s3.2-7.2,2.4-12c-0.8-4-3.2-7.2-6.4-9.6l-63.2-44.8c-1.6-0.8-2.4-2.4-2.4-4s0-3.2,0.8-4.8
			c1.6-1.6,3.2-3.2,5.6-3.2h1.6c0.8,0,2.4,0.8,3.2,0.8l63.2,44.8l20.8,14.4c2.4,1.6,5.6,2.4,8.8,2.4c4.8,0,9.6-2.4,12.8-6.4
			c1.6-2.4,3.2-5.6,3.2-8.8C423.2,417.6,420.8,412.8,416.8,410.4L416.8,410.4z"/>
		<path class="st0" d="M366.4,268.8c-20-2.4-39.2-4-56.8-4h-0.8c-7.2-0.8-14.4-0.8-20.8-0.8c-24,0-47.2,1.6-69.6,4h-0.8l-32.8,26.4
			c-2.4,1.6-3.2,4-3.2,5.6v40l2.4-0.8c10.4-3.2,24-12,26.4-33.6c0.8-3.2,3.2-5.6,6.4-5.6H260c2.4,0,4.8,1.6,6.4,4
			c3.2,7.2,12,22.4,22.4,28.8h0.8l40,0.8l76.8,52.8l0.8-0.8c7.2-5.6,15.2-15.2,23.2-27.2l0.8-0.8L366.4,268.8z"/>
		<path class="st0" d="M256,193.6c31.2,0,57.6-25.6,57.6-57.6S288,79.2,256,79.2s-57.6,25.6-57.6,57.6S224,193.6,256,193.6
			L256,193.6z M222.4,139.2c3.2-3.2,8.8-3.2,12,0l12,12l38.4-38.4c3.2-3.2,8.8-3.2,12,0s3.2,8.8,0,12L252,169.6
			c-1.6,1.6-4,2.4-5.6,2.4c-2.4,0-4-0.8-5.6-2.4l-18.4-18.4C219.2,147.2,219.2,142.4,222.4,139.2L222.4,139.2z"/>
	</g>
</g>
</svg>
