<?xml version="1.0" encoding="utf-8"?>
<!-- Generator: Adobe Illustrator 27.0.1, SVG Export Plug-In . SVG Version: 6.00 Build 0)  -->
<svg version="1.1" id="Layer_3" xmlns="http://www.w3.org/2000/svg" xmlns:xlink="http://www.w3.org/1999/xlink" x="0px" y="0px"
	 viewBox="0 0 512 512" style="enable-background:new 0 0 512 512;" xml:space="preserve">
<style type="text/css">
	.st0{fill:#FFFFFF;}
</style>
<path class="st0" d="M48,112.2C48,90,66,72,88.2,72H96v24l40-40L96,16v24H70.5C40.4,40,16,64.4,16,94.5c0,16.2,7.2,31.5,19.6,41.9
	L64,160l-13.1-32.8C49,122.4,48,117.4,48,112.2z"/>
<path class="st0" d="M476.4,375.7L448,352l13.1,32.8c8.3,20.6-1.8,44.1-22.4,52.3c-4.8,1.9-9.8,2.9-15,2.9H416v-24l-40,40l40,40v-24
	h25.5c30.1,0,54.5-24.4,54.5-54.5C496,401.4,488.8,386,476.4,375.7z"/>
<path class="st0" d="M304,168h24c3.8,0,7.1,2.7,7.8,6.4l7.1,35.4l19.6,6.5c3.9,1.3,6.1,5.2,5.3,9.2l-8,40c-0.7,3.3-3.3,5.8-6.5,6.3
	l-44,7.3l-14.1,28.3c-0.7,1.4-1.7,2.5-3,3.3L258,331.4l11.2,27.9l57.9-7.2c0.6-0.1,1.2-0.1,1.9,0l69.2,7.7
	c35.7-48.6,43.9-112.3,21.5-168.3c-34.8-3.1-59.6-19-59.6-39.5c0.6-10.4,6.3-19.8,15.2-25.2c-11.6-10.8-24.5-19.9-38.5-27.2
	L304,138.9V168z"/>
<path class="st0" d="M328.1,368.1l-63.1,7.9c-0.3,0-0.7,0.1-1,0.1c-3.3,0-6.2-2-7.4-5l-16-40c-1.5-3.6-0.1-7.8,3.3-9.8l38-22.8
	l15-29.9c1.1-2.3,3.3-3.9,5.8-4.3l42.5-7.1l5.5-27.7l-17.3-5.8c-2.7-0.9-4.8-3.2-5.3-6l-6.7-33.6H296c-4.4,0-8-3.6-8-8v-40
	c0-1.9,0.7-3.7,1.8-5.1l31.8-38.2c-44.2-17.8-93.7-16.9-137.2,2.6l35.1,17.6c2.7,1.4,4.4,4.1,4.4,7.1v37.6l14.7,22
	c1.7,2.6,1.8,5.9,0.2,8.6l-24,40c-1.5,2.4-4.1,3.9-6.9,3.9h-28l-21.6,28.8c-1.5,2-3.9,3.2-6.4,3.2h-20.7l-13.7,13.7
	c-1.5,1.5-3.5,2.3-5.7,2.3H81.7c2.3,16.6,6.9,32.7,13.8,48H144v-24c0-3,1.7-5.8,4.4-7.2l32-16c1.1-0.5,2.3-0.8,3.6-0.8h32
	c4.4,0,8,3.6,8,8v54.1l21.5,43l28.4,7.1c3.6,0.9,6.1,4.1,6.1,7.8v30.3c40.8-5.6,78.3-25.4,106-55.8L328.1,368.1z"/>
<path class="st0" d="M415.7,112.7l16.3,13l16.3-13c10-7.9,15.8-20,15.7-32.7c0-17.7-14.3-32-32-32s-32,14.3-32,32
	C400,92.7,405.8,104.8,415.7,112.7z M432,64c8.8,0,16,7.2,16,16s-7.2,16-16,16s-16-7.2-16-16S423.2,64,432,64z"/>
<path class="st0" d="M432,176c32.1,0,56-12.7,56-24c0-7.8-12.5-17.9-35.5-22.1L437,142.2c-2.9,2.3-7.1,2.3-10,0l-15.5-12.4
	c-23,4.2-35.5,14.3-35.5,22.1C376,163.3,399.9,176,432,176z"/>
<path class="st0" d="M232.8,395.6l-24-48c-0.6-1.1-0.8-2.3-0.8-3.6v-48h-22.1L160,308.9V336c0,4.4-3.6,8-8,8h-48.3
	c31.4,54.4,89.5,88,152.3,88c2.7,0,5.3-0.1,8-0.2v-25.6l-25.9-6.5C235.8,399.2,233.9,397.7,232.8,395.6z"/>
<path class="st0" d="M122.3,250.3c1.5-1.5,3.5-2.3,5.7-2.3h20l21.6-28.8c1.5-2,3.9-3.2,6.4-3.2h27.5l19.1-31.8l-13.2-19.8
	c-0.9-1.3-1.3-2.9-1.3-4.4v-35.1l-41.2-20.6C113.1,136,80,193.6,80,256c0,2.7,0.1,5.3,0.2,8h28.5L122.3,250.3z"/>
</svg>
